<?xml version="1.0" standalone="no"?>
<!DOCTYPE svg PUBLIC "-//W3C//DTD SVG 20010904//EN"
 "http://www.w3.org/TR/2001/REC-SVG-20010904/DTD/svg10.dtd">
<svg version="1.0" xmlns="http://www.w3.org/2000/svg"
 width="35.000000pt" height="35.000000pt" viewBox="0 0 48.000000 48.000000"
 preserveAspectRatio="xMidYMid meet">

<g transform="translate(0.000000,48.000000) scale(0.100000,-0.100000)"
fill="#FF6400" stroke="none">
<path d="M160 467 c-49 -16 -133 -102 -148 -153 -28 -94 -8 -169 63 -239 101
-102 229 -102 330 0 102 101 102 229 0 330 -70 71 -152 91 -245 62z m210 -85
c0 -4 -6 -14 -12 -22 -11 -12 -10 -12 5 -1 22 17 35 6 21 -17 -17 -27 -58 -22
-62 7 -4 23 11 41 36 41 6 0 12 -4 12 -8z m-51 -61 c13 -8 13 -12 0 -27 -11
-14 -11 -16 -1 -10 11 7 12 4 4 -11 -14 -26 -88 -93 -134 -121 -20 -12 -39
-29 -42 -37 -6 -17 -36 -20 -36 -4 0 6 7 8 16 5 9 -4 13 -2 8 5 -3 6 13 30 36
54 37 38 46 43 64 33 12 -6 18 -7 13 -3 -4 5 1 18 10 29 18 21 18 21 -4 2 -38
-32 -26 -4 20 43 l42 45 -52 -47 c-29 -26 -60 -47 -70 -47 -13 1 -2 16 36 50
57 52 66 56 90 41z"/>
</g>
</svg>
